ISO-10303-21;
HEADER;
/* Generated by software containing ST-Developer
 * from STEP Tools, Inc. (www.steptools.com) 
 */
/* OPTION: using custom renumber peg */

FILE_DESCRIPTION(
/* description */ ('STEP AP242 Edition 2',
'CAx-IF Rec.Pracs.---Representation and Presentation of Product Manufa
cturing Information (PMI)---4.0---2014-10-13',
'CAx-IF Rec.Pracs.---3D Tessellated Geometry---0.4---2014-09-14','2;1',
'CAx-IF Rec.Pracs.---User Defined Attributes---1.5---2016-08-15'),
/* implementation_level */ '2;1');

FILE_NAME(
/* name */ '695d3dcee9b2ae5993c4ab65',
/* time_stamp */ '2026-01-06T16:52:32Z',
/* author */ (''),
/* organization */ (''),
/* preprocessor_version */ 'ST-DEVELOPER v20',
/* originating_system */ 'ONSHAPE BY PTC INC, 1.208',
/* authorisation */ '  ');

FILE_SCHEMA (('AP242_MANAGED_MODEL_BASED_3D_ENGINEERING_MIM_LF { 1 0 10303 442 3 1 4 }'));
ENDSEC;

DATA;
#10=SHAPE_REPRESENTATION_RELATIONSHIP('','',#189,#11);
#11=ADVANCED_BREP_SHAPE_REPRESENTATION('',(#187),#319);
#12=CYLINDRICAL_SURFACE('',#206,0.002);
#13=CYLINDRICAL_SURFACE('',#207,0.002);
#14=CYLINDRICAL_SURFACE('',#208,0.00215);
#15=CYLINDRICAL_SURFACE('',#209,0.00215);
#16=CYLINDRICAL_SURFACE('',#210,0.00215);
#17=CIRCLE('',#194,0.00215);
#18=CIRCLE('',#195,0.00215);
#19=CIRCLE('',#196,0.002);
#20=CIRCLE('',#197,0.00215);
#21=CIRCLE('',#199,0.002);
#22=CIRCLE('',#200,0.002);
#23=CIRCLE('',#202,0.00215);
#24=CIRCLE('',#203,0.00215);
#25=CIRCLE('',#204,0.00215);
#26=CIRCLE('',#205,0.002);
#27=ORIENTED_EDGE('',*,*,#75,.F.);
#28=ORIENTED_EDGE('',*,*,#76,.T.);
#29=ORIENTED_EDGE('',*,*,#77,.T.);
#30=ORIENTED_EDGE('',*,*,#78,.T.);
#31=ORIENTED_EDGE('',*,*,#79,.F.);
#32=ORIENTED_EDGE('',*,*,#80,.T.);
#33=ORIENTED_EDGE('',*,*,#81,.T.);
#34=ORIENTED_EDGE('',*,*,#82,.T.);
#35=ORIENTED_EDGE('',*,*,#83,.F.);
#36=ORIENTED_EDGE('',*,*,#84,.T.);
#37=ORIENTED_EDGE('',*,*,#85,.F.);
#38=ORIENTED_EDGE('',*,*,#86,.T.);
#39=ORIENTED_EDGE('',*,*,#87,.T.);
#40=ORIENTED_EDGE('',*,*,#88,.T.);
#41=ORIENTED_EDGE('',*,*,#81,.F.);
#42=ORIENTED_EDGE('',*,*,#89,.T.);
#43=ORIENTED_EDGE('',*,*,#77,.F.);
#44=ORIENTED_EDGE('',*,*,#90,.T.);
#45=ORIENTED_EDGE('',*,*,#85,.T.);
#46=ORIENTED_EDGE('',*,*,#91,.T.);
#47=ORIENTED_EDGE('',*,*,#79,.T.);
#48=ORIENTED_EDGE('',*,*,#92,.T.);
#49=ORIENTED_EDGE('',*,*,#83,.T.);
#50=ORIENTED_EDGE('',*,*,#93,.T.);
#51=ORIENTED_EDGE('',*,*,#94,.T.);
#52=ORIENTED_EDGE('',*,*,#95,.T.);
#53=ORIENTED_EDGE('',*,*,#75,.T.);
#54=ORIENTED_EDGE('',*,*,#96,.T.);
#55=ORIENTED_EDGE('',*,*,#91,.F.);
#56=ORIENTED_EDGE('',*,*,#84,.F.);
#57=ORIENTED_EDGE('',*,*,#96,.F.);
#58=ORIENTED_EDGE('',*,*,#80,.F.);
#59=ORIENTED_EDGE('',*,*,#92,.F.);
#60=ORIENTED_EDGE('',*,*,#78,.F.);
#61=ORIENTED_EDGE('',*,*,#89,.F.);
#62=ORIENTED_EDGE('',*,*,#86,.F.);
#63=ORIENTED_EDGE('',*,*,#76,.F.);
#64=ORIENTED_EDGE('',*,*,#95,.F.);
#65=ORIENTED_EDGE('',*,*,#97,.F.);
#66=ORIENTED_EDGE('',*,*,#90,.F.);
#67=ORIENTED_EDGE('',*,*,#98,.F.);
#68=ORIENTED_EDGE('',*,*,#87,.F.);
#69=ORIENTED_EDGE('',*,*,#97,.T.);
#70=ORIENTED_EDGE('',*,*,#94,.F.);
#71=ORIENTED_EDGE('',*,*,#88,.F.);
#72=ORIENTED_EDGE('',*,*,#98,.T.);
#73=ORIENTED_EDGE('',*,*,#93,.F.);
#74=ORIENTED_EDGE('',*,*,#82,.F.);
#75=EDGE_CURVE('',#99,#100,#115,.T.);
#76=EDGE_CURVE('',#99,#101,#116,.T.);
#77=EDGE_CURVE('',#101,#102,#117,.T.);
#78=EDGE_CURVE('',#102,#103,#118,.T.);
#79=EDGE_CURVE('',#104,#103,#119,.T.);
#80=EDGE_CURVE('',#104,#100,#120,.F.);
#81=EDGE_CURVE('',#105,#106,#121,.T.);
#82=EDGE_CURVE('',#106,#107,#122,.T.);
#83=EDGE_CURVE('',#108,#107,#123,.T.);
#84=EDGE_CURVE('',#108,#109,#124,.T.);
#85=EDGE_CURVE('',#110,#109,#125,.T.);
#86=EDGE_CURVE('',#110,#105,#126,.F.);
#87=EDGE_CURVE('',#111,#112,#17,.F.);
#88=EDGE_CURVE('',#112,#106,#18,.F.);
#89=EDGE_CURVE('',#105,#102,#19,.F.);
#90=EDGE_CURVE('',#101,#111,#20,.F.);
#91=EDGE_CURVE('',#109,#104,#21,.T.);
#92=EDGE_CURVE('',#103,#110,#22,.T.);
#93=EDGE_CURVE('',#107,#113,#23,.T.);
#94=EDGE_CURVE('',#113,#114,#24,.T.);
#95=EDGE_CURVE('',#114,#99,#25,.T.);
#96=EDGE_CURVE('',#100,#108,#26,.F.);
#97=EDGE_CURVE('',#111,#114,#127,.F.);
#98=EDGE_CURVE('',#112,#113,#128,.F.);
#99=VERTEX_POINT('',#270);
#100=VERTEX_POINT('',#271);
#101=VERTEX_POINT('',#273);
#102=VERTEX_POINT('',#275);
#103=VERTEX_POINT('',#277);
#104=VERTEX_POINT('',#279);
#105=VERTEX_POINT('',#283);
#106=VERTEX_POINT('',#284);
#107=VERTEX_POINT('',#286);
#108=VERTEX_POINT('',#288);
#109=VERTEX_POINT('',#290);
#110=VERTEX_POINT('',#292);
#111=VERTEX_POINT('',#296);
#112=VERTEX_POINT('',#297);
#113=VERTEX_POINT('',#306);
#114=VERTEX_POINT('',#308);
#115=LINE('',#269,#129);
#116=LINE('',#272,#130);
#117=LINE('',#274,#131);
#118=LINE('',#276,#132);
#119=LINE('',#278,#133);
#120=LINE('',#280,#134);
#121=LINE('',#282,#135);
#122=LINE('',#285,#136);
#123=LINE('',#287,#137);
#124=LINE('',#289,#138);
#125=LINE('',#291,#139);
#126=LINE('',#293,#140);
#127=LINE('',#314,#141);
#128=LINE('',#316,#142);
#129=VECTOR('',#215,1.);
#130=VECTOR('',#216,1.);
#131=VECTOR('',#217,1.);
#132=VECTOR('',#218,1.);
#133=VECTOR('',#219,1.);
#134=VECTOR('',#220,1.);
#135=VECTOR('',#223,1.);
#136=VECTOR('',#224,1.);
#137=VECTOR('',#225,1.);
#138=VECTOR('',#226,1.);
#139=VECTOR('',#227,1.);
#140=VECTOR('',#228,1.);
#141=VECTOR('',#261,1.);
#142=VECTOR('',#264,1.);
#143=EDGE_LOOP('',(#27,#28,#29,#30,#31,#32));
#144=EDGE_LOOP('',(#33,#34,#35,#36,#37,#38));
#145=EDGE_LOOP('',(#39,#40,#41,#42,#43,#44));
#146=EDGE_LOOP('',(#45,#46,#47,#48));
#147=EDGE_LOOP('',(#49,#50,#51,#52,#53,#54));
#148=EDGE_LOOP('',(#55,#56,#57,#58));
#149=EDGE_LOOP('',(#59,#60,#61,#62));
#150=EDGE_LOOP('',(#63,#64,#65,#66));
#151=EDGE_LOOP('',(#67,#68,#69,#70));
#152=EDGE_LOOP('',(#71,#72,#73,#74));
#153=FACE_BOUND('',#143,.T.);
#154=FACE_BOUND('',#144,.T.);
#155=FACE_BOUND('',#145,.T.);
#156=FACE_BOUND('',#146,.T.);
#157=FACE_BOUND('',#147,.T.);
#158=FACE_BOUND('',#148,.T.);
#159=FACE_BOUND('',#149,.T.);
#160=FACE_BOUND('',#150,.T.);
#161=FACE_BOUND('',#151,.T.);
#162=FACE_BOUND('',#152,.T.);
#163=PLANE('',#191);
#164=PLANE('',#192);
#165=PLANE('',#193);
#166=PLANE('',#198);
#167=PLANE('',#201);
#168=ADVANCED_FACE('',(#153),#163,.T.);
#169=ADVANCED_FACE('',(#154),#164,.T.);
#170=ADVANCED_FACE('',(#155),#165,.F.);
#171=ADVANCED_FACE('',(#156),#166,.T.);
#172=ADVANCED_FACE('',(#157),#167,.T.);
#173=ADVANCED_FACE('',(#158),#12,.T.);
#174=ADVANCED_FACE('',(#159),#13,.T.);
#175=ADVANCED_FACE('',(#160),#14,.T.);
#176=ADVANCED_FACE('',(#161),#15,.T.);
#177=ADVANCED_FACE('',(#162),#16,.T.);
#178=CLOSED_SHELL('',(#168,#169,#170,#171,#172,#173,#174,#175,#176,#177));
#179=STYLED_ITEM('',(#180),#187);
#180=PRESENTATION_STYLE_ASSIGNMENT((#181));
#181=SURFACE_STYLE_USAGE(.BOTH.,#182);
#182=SURFACE_SIDE_STYLE('',(#183));
#183=SURFACE_STYLE_FILL_AREA(#184);
#184=FILL_AREA_STYLE('',(#185));
#185=FILL_AREA_STYLE_COLOUR('',#186);
#186=COLOUR_RGB('',0.615686274509804,0.811764705882353,0.929411764705882);
#187=MANIFOLD_SOLID_BREP('Part 1',#178);
#188=SHAPE_DEFINITION_REPRESENTATION(#324,#189);
#189=SHAPE_REPRESENTATION('Part 1',(#190),#319);
#190=AXIS2_PLACEMENT_3D('',#267,#211,#212);
#191=AXIS2_PLACEMENT_3D('',#268,#213,#214);
#192=AXIS2_PLACEMENT_3D('',#281,#221,#222);
#193=AXIS2_PLACEMENT_3D('',#294,#229,#230);
#194=AXIS2_PLACEMENT_3D('',#295,#231,#232);
#195=AXIS2_PLACEMENT_3D('',#298,#233,#234);
#196=AXIS2_PLACEMENT_3D('',#299,#235,#236);
#197=AXIS2_PLACEMENT_3D('',#300,#237,#238);
#198=AXIS2_PLACEMENT_3D('',#301,#239,#240);
#199=AXIS2_PLACEMENT_3D('',#302,#241,#242);
#200=AXIS2_PLACEMENT_3D('',#303,#243,#244);
#201=AXIS2_PLACEMENT_3D('',#304,#245,#246);
#202=AXIS2_PLACEMENT_3D('',#305,#247,#248);
#203=AXIS2_PLACEMENT_3D('',#307,#249,#250);
#204=AXIS2_PLACEMENT_3D('',#309,#251,#252);
#205=AXIS2_PLACEMENT_3D('',#310,#253,#254);
#206=AXIS2_PLACEMENT_3D('',#311,#255,#256);
#207=AXIS2_PLACEMENT_3D('',#312,#257,#258);
#208=AXIS2_PLACEMENT_3D('',#313,#259,#260);
#209=AXIS2_PLACEMENT_3D('',#315,#262,#263);
#210=AXIS2_PLACEMENT_3D('',#317,#265,#266);
#211=DIRECTION('',(0.,0.,1.));
#212=DIRECTION('',(1.,0.,0.));
#213=DIRECTION('',(1.,0.,-6.19544098563145E-17));
#214=DIRECTION('',(-6.19544098563145E-17,0.,-1.));
#215=DIRECTION('',(6.19544098563145E-17,0.,1.));
#216=DIRECTION('',(0.,1.,0.));
#217=DIRECTION('',(6.19544098563145E-17,0.,1.));
#218=DIRECTION('',(0.,-1.,0.));
#219=DIRECTION('',(6.19544098563145E-17,0.,1.));
#220=DIRECTION('',(0.,-1.,0.));
#221=DIRECTION('',(-1.,0.,-6.19544098563145E-17));
#222=DIRECTION('',(-6.19544098563145E-17,0.,1.));
#223=DIRECTION('',(6.19544098563145E-17,0.,-1.));
#224=DIRECTION('',(0.,-1.,0.));
#225=DIRECTION('',(6.19544098563145E-17,0.,-1.));
#226=DIRECTION('',(0.,-1.,0.));
#227=DIRECTION('',(6.19544098563145E-17,0.,-1.));
#228=DIRECTION('',(0.,-1.,0.));
#229=DIRECTION('',(0.,-1.,0.));
#230=DIRECTION('',(1.,0.,0.));
#231=DIRECTION('',(0.,-1.,0.));
#232=DIRECTION('',(0.,0.,-1.));
#233=DIRECTION('',(0.,-1.,0.));
#234=DIRECTION('',(0.,0.,-1.));
#235=DIRECTION('',(0.,-1.,0.));
#236=DIRECTION('',(0.,0.,-1.));
#237=DIRECTION('',(0.,-1.,0.));
#238=DIRECTION('',(0.,0.,-1.));
#239=DIRECTION('',(0.,-1.,0.));
#240=DIRECTION('',(1.,0.,0.));
#241=DIRECTION('',(0.,-1.,0.));
#242=DIRECTION('',(0.,0.,-1.));
#243=DIRECTION('',(0.,-1.,0.));
#244=DIRECTION('',(0.,0.,-1.));
#245=DIRECTION('',(0.,-1.,0.));
#246=DIRECTION('',(1.,0.,0.));
#247=DIRECTION('',(0.,-1.,0.));
#248=DIRECTION('',(0.,0.,-1.));
#249=DIRECTION('',(0.,-1.,0.));
#250=DIRECTION('',(0.,0.,-1.));
#251=DIRECTION('',(0.,-1.,0.));
#252=DIRECTION('',(0.,0.,-1.));
#253=DIRECTION('',(0.,-1.,0.));
#254=DIRECTION('',(0.,0.,-1.));
#255=DIRECTION('',(0.,1.,0.));
#256=DIRECTION('',(0.,0.,1.));
#257=DIRECTION('',(0.,-1.,0.));
#258=DIRECTION('',(0.,0.,-1.));
#259=DIRECTION('',(0.,1.,0.));
#260=DIRECTION('',(0.,0.,1.));
#261=DIRECTION('',(0.,1.,0.));
#262=DIRECTION('',(0.,1.,0.));
#263=DIRECTION('',(0.,0.,1.));
#264=DIRECTION('',(0.,1.,0.));
#265=DIRECTION('',(0.,-1.,0.));
#266=DIRECTION('',(0.,0.,-1.));
#267=CARTESIAN_POINT('',(0.,0.,0.));
#268=CARTESIAN_POINT('',(0.002,0.0102,0.0035));
#269=CARTESIAN_POINT('',(0.002,0.0052,-0.0035));
#270=CARTESIAN_POINT('',(0.002,0.0052,-0.00374582072237985));
#271=CARTESIAN_POINT('',(0.002,0.0052,0.002));
#272=CARTESIAN_POINT('',(0.002,0.0102,-0.00374582072237985));
#273=CARTESIAN_POINT('',(0.002,0.0102,-0.00374582072237985));
#274=CARTESIAN_POINT('',(0.002,0.0102,0.0035));
#275=CARTESIAN_POINT('',(0.002,0.0102,0.005));
#276=CARTESIAN_POINT('',(0.002,0.0102,0.005));
#277=CARTESIAN_POINT('',(0.002,0.,0.005));
#278=CARTESIAN_POINT('',(0.002,0.,0.0035));
#279=CARTESIAN_POINT('',(0.002,0.,0.002));
#280=CARTESIAN_POINT('',(0.002,0.0052,0.002));
#281=CARTESIAN_POINT('',(-0.002,0.0102,0.0035));
#282=CARTESIAN_POINT('',(-0.002,0.0102,0.0035));
#283=CARTESIAN_POINT('',(-0.002,0.0102,0.005));
#284=CARTESIAN_POINT('',(-0.002,0.0102,-0.00374582072237984));
#285=CARTESIAN_POINT('',(-0.002,0.0102,-0.00374582072237984));
#286=CARTESIAN_POINT('',(-0.002,0.0052,-0.00374582072237984));
#287=CARTESIAN_POINT('',(-0.002,0.0052,-0.0035));
#288=CARTESIAN_POINT('',(-0.002,0.0052,0.002));
#289=CARTESIAN_POINT('',(-0.002,0.,0.002));
#290=CARTESIAN_POINT('',(-0.002,0.,0.002));
#291=CARTESIAN_POINT('',(-0.002,0.,0.0035));
#292=CARTESIAN_POINT('',(-0.002,0.,0.005));
#293=CARTESIAN_POINT('',(-0.002,0.0102,0.005));
#294=CARTESIAN_POINT('',(0.,0.0102,1.7347234759768E-18));
#295=CARTESIAN_POINT('',(-5.42101086242752E-20,0.0102,-0.00355832072237984));
#296=CARTESIAN_POINT('',(0.00160124834033492,0.0102,-0.00499306939464779));
#297=CARTESIAN_POINT('',(-0.00160124834033493,0.0102,-0.00499306939464779));
#298=CARTESIAN_POINT('',(0.000149999999999999,0.0102,-0.00374582072237984));
#299=CARTESIAN_POINT('',(-1.82765509076128E-18,0.0102,0.005));
#300=CARTESIAN_POINT('',(-0.00015,0.0102,-0.00374582072237985));
#301=CARTESIAN_POINT('',(0.,0.,1.7347234759768E-18));
#302=CARTESIAN_POINT('',(-9.29316147844718E-20,0.,0.002));
#303=CARTESIAN_POINT('',(-1.82765509076128E-18,0.,0.005));
#304=CARTESIAN_POINT('',(0.,0.0052,1.7347234759768E-18));
#305=CARTESIAN_POINT('',(0.000149999999999999,0.0052,-0.00374582072237984));
#306=CARTESIAN_POINT('',(-0.00160124834033493,0.0052,-0.00499306939464779));
#307=CARTESIAN_POINT('',(-5.42101086242752E-20,0.0052,-0.00355832072237984));
#308=CARTESIAN_POINT('',(0.00160124834033492,0.0052,-0.00499306939464779));
#309=CARTESIAN_POINT('',(-0.00015,0.0052,-0.00374582072237985));
#310=CARTESIAN_POINT('',(-1.64179186119233E-18,0.0052,0.002));
#311=CARTESIAN_POINT('',(-9.29316147844718E-20,0.0102,0.002));
#312=CARTESIAN_POINT('',(-1.82765509076128E-18,0.0102,0.005));
#313=CARTESIAN_POINT('',(-0.00015,0.0102,-0.00374582072237985));
#314=CARTESIAN_POINT('',(0.00160124834033492,0.0077,-0.00499306939464779));
#315=CARTESIAN_POINT('',(-5.42101086242752E-20,0.0102,-0.00355832072237984));
#316=CARTESIAN_POINT('',(-0.00160124834033493,0.0077,-0.00499306939464779));
#317=CARTESIAN_POINT('',(0.000149999999999999,0.0102,-0.00374582072237984));
#318=MECHANICAL_DESIGN_GEOMETRIC_PRESENTATION_REPRESENTATION('',(#179),
#319);
#319=(
GEOMETRIC_REPRESENTATION_CONTEXT(3)
GLOBAL_UNCERTAINTY_ASSIGNED_CONTEXT((#320))
GLOBAL_UNIT_ASSIGNED_CONTEXT((#323,#322,#321))
REPRESENTATION_CONTEXT('Part 1','TOP_LEVEL_ASSEMBLY_PART')
);
#320=UNCERTAINTY_MEASURE_WITH_UNIT(LENGTH_MEASURE(1.E-8),#323,
'DISTANCE_ACCURACY_VALUE','Maximum Tolerance applied to model');
#321=(
NAMED_UNIT(*)
SI_UNIT($,.STERADIAN.)
SOLID_ANGLE_UNIT()
);
#322=(
NAMED_UNIT(*)
PLANE_ANGLE_UNIT()
SI_UNIT($,.RADIAN.)
);
#323=(
LENGTH_UNIT()
NAMED_UNIT(*)
SI_UNIT($,.METRE.)
);
#324=PRODUCT_DEFINITION_SHAPE('','',#325);
#325=PRODUCT_DEFINITION('','',#327,#326);
#326=PRODUCT_DEFINITION_CONTEXT('',#333,'design');
#327=PRODUCT_DEFINITION_FORMATION_WITH_SPECIFIED_SOURCE('','',#329,
 .NOT_KNOWN.);
#328=PRODUCT_RELATED_PRODUCT_CATEGORY('','',(#329));
#329=PRODUCT('Part 1','Part 1','Part 1',(#331));
#330=PRODUCT_CATEGORY('','');
#331=PRODUCT_CONTEXT('',#333,'mechanical');
#332=APPLICATION_PROTOCOL_DEFINITION('international standard',
'ap242_managed_model_based_3d_engineering',2020,#333);
#333=APPLICATION_CONTEXT('managed model based 3d engineering');
ENDSEC;
END-ISO-10303-21;
