ISO-10303-21;
HEADER;
/* Generated by software containing ST-Developer
 * from STEP Tools, Inc. (www.steptools.com) 
 */

FILE_DESCRIPTION(
/* description */ ('STEP AP242 Edition 2'),
/* implementation_level */ '2;1');

FILE_NAME(
/* name */ 'pegs_Normal.step',
/* time_stamp */ '2026-06-29T15:35:26+02:00',
/* author */ (''),
/* organization */ (''),
/* preprocessor_version */ 'ST-DEVELOPER v20.1',
/* originating_system */ 'Autodesk Translation Framework v14.24.0.0',
/* authorisation */ '');

FILE_SCHEMA (('AUTOMOTIVE_DESIGN { 1 0 10303 214 3 1 1 }'));
ENDSEC;

DATA;
#10=MECHANICAL_DESIGN_GEOMETRIC_PRESENTATION_REPRESENTATION('',(#13),#255);
#11=SHAPE_REPRESENTATION_RELATIONSHIP('SRR','None',#261,#12);
#12=ADVANCED_BREP_SHAPE_REPRESENTATION('',(#14),#254);
#13=STYLED_ITEM('',(#271),#14);
#14=MANIFOLD_SOLID_BREP('Body1',#143);
#15=CYLINDRICAL_SURFACE('',#168,0.00215);
#16=CYLINDRICAL_SURFACE('',#169,0.00215);
#17=CYLINDRICAL_SURFACE('',#170,0.00215);
#18=CIRCLE('',#160,0.00215);
#19=CIRCLE('',#161,0.00215);
#20=CIRCLE('',#163,0.00215);
#21=CIRCLE('',#164,0.00215);
#22=CIRCLE('',#166,0.00215);
#23=CIRCLE('',#167,0.00215);
#24=FACE_OUTER_BOUND('',#32,.T.);
#25=FACE_OUTER_BOUND('',#33,.T.);
#26=FACE_OUTER_BOUND('',#34,.T.);
#27=FACE_OUTER_BOUND('',#35,.T.);
#28=FACE_OUTER_BOUND('',#36,.T.);
#29=FACE_OUTER_BOUND('',#37,.T.);
#30=FACE_OUTER_BOUND('',#38,.T.);
#31=FACE_OUTER_BOUND('',#39,.T.);
#32=EDGE_LOOP('',(#94,#95,#96,#97,#98,#99));
#33=EDGE_LOOP('',(#100,#101,#102,#103,#104,#105));
#34=EDGE_LOOP('',(#106,#107,#108,#109));
#35=EDGE_LOOP('',(#110,#111,#112,#113));
#36=EDGE_LOOP('',(#114,#115,#116,#117));
#37=EDGE_LOOP('',(#118,#119,#120,#121));
#38=EDGE_LOOP('',(#122,#123,#124,#125));
#39=EDGE_LOOP('',(#126,#127,#128,#129));
#40=LINE('',#217,#52);
#41=LINE('',#219,#53);
#42=LINE('',#221,#54);
#43=LINE('',#223,#55);
#44=LINE('',#225,#56);
#45=LINE('',#226,#57);
#46=LINE('',#230,#58);
#47=LINE('',#232,#59);
#48=LINE('',#234,#60);
#49=LINE('',#236,#61);
#50=LINE('',#238,#62);
#51=LINE('',#239,#63);
#52=VECTOR('',#175,1.);
#53=VECTOR('',#176,1.);
#54=VECTOR('',#177,1.);
#55=VECTOR('',#178,1.);
#56=VECTOR('',#179,0.01);
#57=VECTOR('',#180,1.);
#58=VECTOR('',#183,1.);
#59=VECTOR('',#184,1.);
#60=VECTOR('',#185,1.);
#61=VECTOR('',#186,1.);
#62=VECTOR('',#187,0.01);
#63=VECTOR('',#188,1.);
#64=VERTEX_POINT('',#215);
#65=VERTEX_POINT('',#216);
#66=VERTEX_POINT('',#218);
#67=VERTEX_POINT('',#220);
#68=VERTEX_POINT('',#222);
#69=VERTEX_POINT('',#224);
#70=VERTEX_POINT('',#228);
#71=VERTEX_POINT('',#229);
#72=VERTEX_POINT('',#231);
#73=VERTEX_POINT('',#233);
#74=VERTEX_POINT('',#235);
#75=VERTEX_POINT('',#237);
#76=EDGE_CURVE('',#64,#65,#40,.T.);
#77=EDGE_CURVE('',#64,#66,#41,.T.);
#78=EDGE_CURVE('',#66,#67,#42,.T.);
#79=EDGE_CURVE('',#67,#68,#43,.T.);
#80=EDGE_CURVE('',#69,#68,#44,.T.);
#81=EDGE_CURVE('',#69,#65,#45,.F.);
#82=EDGE_CURVE('',#70,#71,#46,.T.);
#83=EDGE_CURVE('',#71,#72,#47,.T.);
#84=EDGE_CURVE('',#73,#72,#48,.T.);
#85=EDGE_CURVE('',#73,#74,#49,.T.);
#86=EDGE_CURVE('',#75,#74,#50,.T.);
#87=EDGE_CURVE('',#75,#70,#51,.F.);
#88=EDGE_CURVE('',#66,#71,#18,.F.);
#89=EDGE_CURVE('',#70,#67,#19,.F.);
#90=EDGE_CURVE('',#74,#69,#20,.T.);
#91=EDGE_CURVE('',#68,#75,#21,.T.);
#92=EDGE_CURVE('',#72,#64,#22,.T.);
#93=EDGE_CURVE('',#65,#73,#23,.F.);
#94=ORIENTED_EDGE('',*,*,#76,.F.);
#95=ORIENTED_EDGE('',*,*,#77,.T.);
#96=ORIENTED_EDGE('',*,*,#78,.T.);
#97=ORIENTED_EDGE('',*,*,#79,.T.);
#98=ORIENTED_EDGE('',*,*,#80,.F.);
#99=ORIENTED_EDGE('',*,*,#81,.T.);
#100=ORIENTED_EDGE('',*,*,#82,.T.);
#101=ORIENTED_EDGE('',*,*,#83,.T.);
#102=ORIENTED_EDGE('',*,*,#84,.F.);
#103=ORIENTED_EDGE('',*,*,#85,.T.);
#104=ORIENTED_EDGE('',*,*,#86,.F.);
#105=ORIENTED_EDGE('',*,*,#87,.T.);
#106=ORIENTED_EDGE('',*,*,#88,.T.);
#107=ORIENTED_EDGE('',*,*,#82,.F.);
#108=ORIENTED_EDGE('',*,*,#89,.T.);
#109=ORIENTED_EDGE('',*,*,#78,.F.);
#110=ORIENTED_EDGE('',*,*,#86,.T.);
#111=ORIENTED_EDGE('',*,*,#90,.T.);
#112=ORIENTED_EDGE('',*,*,#80,.T.);
#113=ORIENTED_EDGE('',*,*,#91,.T.);
#114=ORIENTED_EDGE('',*,*,#84,.T.);
#115=ORIENTED_EDGE('',*,*,#92,.T.);
#116=ORIENTED_EDGE('',*,*,#76,.T.);
#117=ORIENTED_EDGE('',*,*,#93,.T.);
#118=ORIENTED_EDGE('',*,*,#90,.F.);
#119=ORIENTED_EDGE('',*,*,#85,.F.);
#120=ORIENTED_EDGE('',*,*,#93,.F.);
#121=ORIENTED_EDGE('',*,*,#81,.F.);
#122=ORIENTED_EDGE('',*,*,#91,.F.);
#123=ORIENTED_EDGE('',*,*,#79,.F.);
#124=ORIENTED_EDGE('',*,*,#89,.F.);
#125=ORIENTED_EDGE('',*,*,#87,.F.);
#126=ORIENTED_EDGE('',*,*,#77,.F.);
#127=ORIENTED_EDGE('',*,*,#92,.F.);
#128=ORIENTED_EDGE('',*,*,#83,.F.);
#129=ORIENTED_EDGE('',*,*,#88,.F.);
#130=PLANE('',#157);
#131=PLANE('',#158);
#132=PLANE('',#159);
#133=PLANE('',#162);
#134=PLANE('',#165);
#135=ADVANCED_FACE('',(#24),#130,.T.);
#136=ADVANCED_FACE('',(#25),#131,.T.);
#137=ADVANCED_FACE('',(#26),#132,.F.);
#138=ADVANCED_FACE('',(#27),#133,.T.);
#139=ADVANCED_FACE('',(#28),#134,.T.);
#140=ADVANCED_FACE('',(#29),#15,.T.);
#141=ADVANCED_FACE('',(#30),#16,.T.);
#142=ADVANCED_FACE('',(#31),#17,.T.);
#143=CLOSED_SHELL('',(#135,#136,#137,#138,#139,#140,#141,#142));
#144=DERIVED_UNIT_ELEMENT(#146,1.);
#145=DERIVED_UNIT_ELEMENT(#256,-3.);
#146=(
MASS_UNIT()
NAMED_UNIT(*)
SI_UNIT(.KILO.,.GRAM.)
);
#147=DERIVED_UNIT((#144,#145));
#148=MEASURE_REPRESENTATION_ITEM('density measure',
POSITIVE_RATIO_MEASURE(7850.),#147);
#149=PROPERTY_DEFINITION_REPRESENTATION(#154,#151);
#150=PROPERTY_DEFINITION_REPRESENTATION(#155,#152);
#151=REPRESENTATION('material name',(#153),#254);
#152=REPRESENTATION('density',(#148),#254);
#153=DESCRIPTIVE_REPRESENTATION_ITEM('Steel','Steel');
#154=PROPERTY_DEFINITION('material property','material name',#263);
#155=PROPERTY_DEFINITION('material property','density of part',#263);
#156=AXIS2_PLACEMENT_3D('',#213,#171,#172);
#157=AXIS2_PLACEMENT_3D('',#214,#173,#174);
#158=AXIS2_PLACEMENT_3D('',#227,#181,#182);
#159=AXIS2_PLACEMENT_3D('',#240,#189,#190);
#160=AXIS2_PLACEMENT_3D('',#241,#191,#192);
#161=AXIS2_PLACEMENT_3D('',#242,#193,#194);
#162=AXIS2_PLACEMENT_3D('',#243,#195,#196);
#163=AXIS2_PLACEMENT_3D('',#244,#197,#198);
#164=AXIS2_PLACEMENT_3D('',#245,#199,#200);
#165=AXIS2_PLACEMENT_3D('',#246,#201,#202);
#166=AXIS2_PLACEMENT_3D('',#247,#203,#204);
#167=AXIS2_PLACEMENT_3D('',#248,#205,#206);
#168=AXIS2_PLACEMENT_3D('',#249,#207,#208);
#169=AXIS2_PLACEMENT_3D('',#250,#209,#210);
#170=AXIS2_PLACEMENT_3D('',#251,#211,#212);
#171=DIRECTION('axis',(0.,0.,1.));
#172=DIRECTION('refdir',(1.,0.,0.));
#173=DIRECTION('center_axis',(1.,0.,-5.9818050895752E-17));
#174=DIRECTION('ref_axis',(-5.9818050895752E-17,0.,-1.));
#175=DIRECTION('',(5.9818050895752E-17,0.,1.));
#176=DIRECTION('',(0.,1.,0.));
#177=DIRECTION('',(5.9818050895752E-17,0.,1.));
#178=DIRECTION('',(0.,-1.,0.));
#179=DIRECTION('',(5.9818050895752E-17,0.,1.));
#180=DIRECTION('',(0.,-1.,0.));
#181=DIRECTION('center_axis',(-1.,0.,-5.9818050895752E-17));
#182=DIRECTION('ref_axis',(-5.9818050895752E-17,0.,1.));
#183=DIRECTION('',(5.9818050895752E-17,0.,-1.));
#184=DIRECTION('',(0.,-1.,0.));
#185=DIRECTION('',(5.9818050895752E-17,0.,-1.));
#186=DIRECTION('',(0.,-1.,0.));
#187=DIRECTION('',(5.9818050895752E-17,0.,-1.));
#188=DIRECTION('',(0.,-1.,0.));
#189=DIRECTION('center_axis',(0.,-1.,0.));
#190=DIRECTION('ref_axis',(1.,0.,0.));
#191=DIRECTION('center_axis',(0.,-1.,0.));
#192=DIRECTION('ref_axis',(0.,0.,-1.));
#193=DIRECTION('center_axis',(0.,-1.,0.));
#194=DIRECTION('ref_axis',(0.,0.,-1.));
#195=DIRECTION('center_axis',(0.,-1.,0.));
#196=DIRECTION('ref_axis',(1.,0.,0.));
#197=DIRECTION('center_axis',(0.,-1.,0.));
#198=DIRECTION('ref_axis',(0.,0.,1.));
#199=DIRECTION('center_axis',(0.,-1.,0.));
#200=DIRECTION('ref_axis',(0.,0.,-1.));
#201=DIRECTION('center_axis',(0.,-1.,0.));
#202=DIRECTION('ref_axis',(1.,0.,0.));
#203=DIRECTION('center_axis',(0.,-1.,0.));
#204=DIRECTION('ref_axis',(0.,0.,-1.));
#205=DIRECTION('center_axis',(0.,-1.,0.));
#206=DIRECTION('ref_axis',(0.,0.,-1.));
#207=DIRECTION('center_axis',(0.,1.,0.));
#208=DIRECTION('ref_axis',(1.22464679914735E-16,0.,-1.));
#209=DIRECTION('center_axis',(0.,-1.,0.));
#210=DIRECTION('ref_axis',(1.22464679914735E-16,0.,1.));
#211=DIRECTION('center_axis',(0.,1.,0.));
#212=DIRECTION('ref_axis',(1.22464679914735E-16,0.,-1.));
#213=CARTESIAN_POINT('',(0.,0.,0.));
#214=CARTESIAN_POINT('Origin',(0.00215,0.0102,0.003625));
#215=CARTESIAN_POINT('',(0.00215,0.0052,-0.00420944084089785));
#216=CARTESIAN_POINT('',(0.00215,0.0052,0.00215));
#217=CARTESIAN_POINT('',(0.00215,0.0052,-0.003625));
#218=CARTESIAN_POINT('',(0.00215,0.0102,-0.00420944084089785));
#219=CARTESIAN_POINT('',(0.00215,0.0102,-0.00420944084089785));
#220=CARTESIAN_POINT('',(0.00215,0.0102,0.0051));
#221=CARTESIAN_POINT('',(0.00215,0.0102,0.003625));
#222=CARTESIAN_POINT('',(0.00215,0.004,0.0051));
#223=CARTESIAN_POINT('',(0.00215,0.0102,0.0051));
#224=CARTESIAN_POINT('',(0.00215,0.004,0.00215));
#225=CARTESIAN_POINT('',(0.00215,0.004,0.0018125));
#226=CARTESIAN_POINT('',(0.00215,0.0052,0.00215));
#227=CARTESIAN_POINT('Origin',(-0.00215,0.0102,0.003625));
#228=CARTESIAN_POINT('',(-0.00215,0.0102,0.0051));
#229=CARTESIAN_POINT('',(-0.00215,0.0102,-0.00420944084089785));
#230=CARTESIAN_POINT('',(-0.00215,0.0102,0.003625));
#231=CARTESIAN_POINT('',(-0.00215,0.0052,-0.00420944084089785));
#232=CARTESIAN_POINT('',(-0.00215,0.0102,-0.00420944084089785));
#233=CARTESIAN_POINT('',(-0.00215,0.0052,0.00215));
#234=CARTESIAN_POINT('',(-0.00215,0.0052,-0.003625));
#235=CARTESIAN_POINT('',(-0.00215,0.004,0.00215));
#236=CARTESIAN_POINT('',(-0.00215,0.,0.00215));
#237=CARTESIAN_POINT('',(-0.00215,0.004,0.0051));
#238=CARTESIAN_POINT('',(-0.00215,0.004,0.0018125));
#239=CARTESIAN_POINT('',(-0.00215,0.0102,0.0051));
#240=CARTESIAN_POINT('Origin',(0.,0.0102,0.));
#241=CARTESIAN_POINT('Origin',(1.0842021724855E-19,0.0102,-0.00420944084089785));
#242=CARTESIAN_POINT('Origin',(-1.82295510104804E-18,0.0102,0.0051));
#243=CARTESIAN_POINT('Origin',(0.,0.004,0.));
#244=CARTESIAN_POINT('Origin',(7.79130112917169E-19,0.004,0.00215));
#245=CARTESIAN_POINT('Origin',(-1.82295510104804E-18,0.004,0.0051));
#246=CARTESIAN_POINT('Origin',(0.,0.0052,0.));
#247=CARTESIAN_POINT('Origin',(1.0842021724855E-19,0.0052,-0.00420944084089785));
#248=CARTESIAN_POINT('Origin',(-1.64649185090558E-18,0.0052,0.00215));
#249=CARTESIAN_POINT('Origin',(7.79130112917169E-19,0.0102,0.00215));
#250=CARTESIAN_POINT('Origin',(-1.82295510104804E-18,0.0102,0.0051));
#251=CARTESIAN_POINT('Origin',(3.98720757027818E-19,0.0102,-0.00420944084089785));
#252=UNCERTAINTY_MEASURE_WITH_UNIT(LENGTH_MEASURE(1.E-5),#256,
'DISTANCE_ACCURACY_VALUE',
'Maximum model space distance between geometric entities at asserted c
onnectivities');
#253=UNCERTAINTY_MEASURE_WITH_UNIT(LENGTH_MEASURE(1.E-5),#256,
'DISTANCE_ACCURACY_VALUE',
'Maximum model space distance between geometric entities at asserted c
onnectivities');
#254=(
GEOMETRIC_REPRESENTATION_CONTEXT(3)
GLOBAL_UNCERTAINTY_ASSIGNED_CONTEXT((#252))
GLOBAL_UNIT_ASSIGNED_CONTEXT((#256,#257,#258))
REPRESENTATION_CONTEXT('','3D')
);
#255=(
GEOMETRIC_REPRESENTATION_CONTEXT(3)
GLOBAL_UNCERTAINTY_ASSIGNED_CONTEXT((#253))
GLOBAL_UNIT_ASSIGNED_CONTEXT((#256,#257,#258))
REPRESENTATION_CONTEXT('','3D')
);
#256=(
LENGTH_UNIT()
NAMED_UNIT(*)
SI_UNIT($,.METRE.)
);
#257=(
NAMED_UNIT(*)
PLANE_ANGLE_UNIT()
SI_UNIT($,.RADIAN.)
);
#258=(
NAMED_UNIT(*)
SI_UNIT($,.STERADIAN.)
SOLID_ANGLE_UNIT()
);
#259=SHAPE_DEFINITION_REPRESENTATION(#260,#261);
#260=PRODUCT_DEFINITION_SHAPE('',$,#263);
#261=SHAPE_REPRESENTATION('',(#156),#254);
#262=PRODUCT_DEFINITION_CONTEXT('part definition',#267,'design');
#263=PRODUCT_DEFINITION('Part 1','pegs_Normal',#264,#262);
#264=PRODUCT_DEFINITION_FORMATION('',$,#269);
#265=PRODUCT_RELATED_PRODUCT_CATEGORY('pegs_Normal','pegs_Normal',(#269));
#266=APPLICATION_PROTOCOL_DEFINITION('international standard',
'automotive_design',2009,#267);
#267=APPLICATION_CONTEXT(
'Core Data for Automotive Mechanical Design Process');
#268=PRODUCT_CONTEXT('part definition',#267,'mechanical');
#269=PRODUCT('Part 1','pegs_Normal','STEP AP242 Edition 2',(#268));
#270=PRESENTATION_STYLE_ASSIGNMENT((#272));
#271=PRESENTATION_STYLE_ASSIGNMENT((#273));
#272=SURFACE_STYLE_USAGE(.BOTH.,#274);
#273=SURFACE_STYLE_USAGE(.BOTH.,#275);
#274=SURFACE_SIDE_STYLE('',(#276));
#275=SURFACE_SIDE_STYLE('',(#277));
#276=SURFACE_STYLE_FILL_AREA(#278);
#277=SURFACE_STYLE_FILL_AREA(#279);
#278=FILL_AREA_STYLE('Steel - Satin',(#280));
#279=FILL_AREA_STYLE('Opaque(157,207,237)',(#281));
#280=FILL_AREA_STYLE_COLOUR('Steel - Satin',#282);
#281=FILL_AREA_STYLE_COLOUR('Opaque(157,207,237)',#283);
#282=COLOUR_RGB('Steel - Satin',0.627450980392157,0.627450980392157,0.627450980392157);
#283=COLOUR_RGB('Opaque(157,207,237)',0.615686274509804,0.811764705882353,
0.929411764705882);
ENDSEC;
END-ISO-10303-21;
