ISO-10303-21;
HEADER;
/* Generated by software containing ST-Developer
 * from STEP Tools, Inc. (www.steptools.com) 
 */
/* OPTION: using custom renumber peg */

FILE_DESCRIPTION(
/* description */ ('STEP AP242 Edition 2',
'CAx-IF Rec.Pracs.---Representation and Presentation of Product Manufa
cturing Information (PMI)---4.0---2014-10-13',
'CAx-IF Rec.Pracs.---3D Tessellated Geometry---0.4---2014-09-14','2;1',
'CAx-IF Rec.Pracs.---User Defined Attributes---1.5---2016-08-15'),
/* implementation_level */ '2;1');

FILE_NAME(
/* name */ '695be47a00086c9a684dc699',
/* time_stamp */ '2026-01-05T16:19:06Z',
/* author */ (''),
/* organization */ (''),
/* preprocessor_version */ 'ST-DEVELOPER v20',
/* originating_system */ 'ONSHAPE BY PTC INC, 1.208',
/* authorisation */ '  ');

FILE_SCHEMA (('AP242_MANAGED_MODEL_BASED_3D_ENGINEERING_MIM_LF { 1 0 10303 442 3 1 4 }'));
ENDSEC;

DATA;
#10=SHAPE_REPRESENTATION_RELATIONSHIP('','',#151,#11);
#11=ADVANCED_BREP_SHAPE_REPRESENTATION('',(#149),#249);
#12=CYLINDRICAL_SURFACE('',#164,0.00225);
#13=CYLINDRICAL_SURFACE('',#165,0.00225);
#14=CYLINDRICAL_SURFACE('',#166,0.00225);
#15=CIRCLE('',#156,0.00225);
#16=CIRCLE('',#157,0.00225);
#17=CIRCLE('',#159,0.00225);
#18=CIRCLE('',#160,0.00225);
#19=CIRCLE('',#162,0.00225);
#20=CIRCLE('',#163,0.00225);
#21=ORIENTED_EDGE('',*,*,#57,.F.);
#22=ORIENTED_EDGE('',*,*,#58,.T.);
#23=ORIENTED_EDGE('',*,*,#59,.F.);
#24=ORIENTED_EDGE('',*,*,#60,.T.);
#25=ORIENTED_EDGE('',*,*,#61,.T.);
#26=ORIENTED_EDGE('',*,*,#62,.T.);
#27=ORIENTED_EDGE('',*,*,#63,.F.);
#28=ORIENTED_EDGE('',*,*,#64,.T.);
#29=ORIENTED_EDGE('',*,*,#65,.F.);
#30=ORIENTED_EDGE('',*,*,#66,.T.);
#31=ORIENTED_EDGE('',*,*,#67,.T.);
#32=ORIENTED_EDGE('',*,*,#68,.T.);
#33=ORIENTED_EDGE('',*,*,#69,.T.);
#34=ORIENTED_EDGE('',*,*,#67,.F.);
#35=ORIENTED_EDGE('',*,*,#70,.T.);
#36=ORIENTED_EDGE('',*,*,#61,.F.);
#37=ORIENTED_EDGE('',*,*,#65,.T.);
#38=ORIENTED_EDGE('',*,*,#71,.T.);
#39=ORIENTED_EDGE('',*,*,#57,.T.);
#40=ORIENTED_EDGE('',*,*,#72,.T.);
#41=ORIENTED_EDGE('',*,*,#63,.T.);
#42=ORIENTED_EDGE('',*,*,#73,.T.);
#43=ORIENTED_EDGE('',*,*,#59,.T.);
#44=ORIENTED_EDGE('',*,*,#74,.T.);
#45=ORIENTED_EDGE('',*,*,#71,.F.);
#46=ORIENTED_EDGE('',*,*,#64,.F.);
#47=ORIENTED_EDGE('',*,*,#74,.F.);
#48=ORIENTED_EDGE('',*,*,#58,.F.);
#49=ORIENTED_EDGE('',*,*,#60,.F.);
#50=ORIENTED_EDGE('',*,*,#73,.F.);
#51=ORIENTED_EDGE('',*,*,#68,.F.);
#52=ORIENTED_EDGE('',*,*,#69,.F.);
#53=ORIENTED_EDGE('',*,*,#72,.F.);
#54=ORIENTED_EDGE('',*,*,#62,.F.);
#55=ORIENTED_EDGE('',*,*,#70,.F.);
#56=ORIENTED_EDGE('',*,*,#66,.F.);
#57=EDGE_CURVE('',#75,#76,#87,.T.);
#58=EDGE_CURVE('',#75,#77,#88,.F.);
#59=EDGE_CURVE('',#78,#77,#89,.T.);
#60=EDGE_CURVE('',#78,#79,#90,.T.);
#61=EDGE_CURVE('',#79,#80,#91,.T.);
#62=EDGE_CURVE('',#80,#76,#92,.T.);
#63=EDGE_CURVE('',#81,#82,#93,.T.);
#64=EDGE_CURVE('',#81,#83,#94,.T.);
#65=EDGE_CURVE('',#84,#83,#95,.T.);
#66=EDGE_CURVE('',#84,#85,#96,.F.);
#67=EDGE_CURVE('',#85,#86,#97,.T.);
#68=EDGE_CURVE('',#86,#82,#98,.F.);
#69=EDGE_CURVE('',#79,#86,#15,.F.);
#70=EDGE_CURVE('',#85,#80,#16,.F.);
#71=EDGE_CURVE('',#83,#75,#17,.T.);
#72=EDGE_CURVE('',#76,#84,#18,.T.);
#73=EDGE_CURVE('',#82,#78,#19,.T.);
#74=EDGE_CURVE('',#77,#81,#20,.F.);
#75=VERTEX_POINT('',#212);
#76=VERTEX_POINT('',#213);
#77=VERTEX_POINT('',#215);
#78=VERTEX_POINT('',#217);
#79=VERTEX_POINT('',#219);
#80=VERTEX_POINT('',#221);
#81=VERTEX_POINT('',#225);
#82=VERTEX_POINT('',#226);
#83=VERTEX_POINT('',#228);
#84=VERTEX_POINT('',#230);
#85=VERTEX_POINT('',#232);
#86=VERTEX_POINT('',#234);
#87=LINE('',#211,#99);
#88=LINE('',#214,#100);
#89=LINE('',#216,#101);
#90=LINE('',#218,#102);
#91=LINE('',#220,#103);
#92=LINE('',#222,#104);
#93=LINE('',#224,#105);
#94=LINE('',#227,#106);
#95=LINE('',#229,#107);
#96=LINE('',#231,#108);
#97=LINE('',#233,#109);
#98=LINE('',#235,#110);
#99=VECTOR('',#171,1.);
#100=VECTOR('',#172,1.);
#101=VECTOR('',#173,1.);
#102=VECTOR('',#174,1.);
#103=VECTOR('',#175,1.);
#104=VECTOR('',#176,1.);
#105=VECTOR('',#179,1.);
#106=VECTOR('',#180,1.);
#107=VECTOR('',#181,1.);
#108=VECTOR('',#182,1.);
#109=VECTOR('',#183,1.);
#110=VECTOR('',#184,1.);
#111=EDGE_LOOP('',(#21,#22,#23,#24,#25,#26));
#112=EDGE_LOOP('',(#27,#28,#29,#30,#31,#32));
#113=EDGE_LOOP('',(#33,#34,#35,#36));
#114=EDGE_LOOP('',(#37,#38,#39,#40));
#115=EDGE_LOOP('',(#41,#42,#43,#44));
#116=EDGE_LOOP('',(#45,#46,#47,#48));
#117=EDGE_LOOP('',(#49,#50,#51,#52));
#118=EDGE_LOOP('',(#53,#54,#55,#56));
#119=FACE_BOUND('',#111,.T.);
#120=FACE_BOUND('',#112,.T.);
#121=FACE_BOUND('',#113,.T.);
#122=FACE_BOUND('',#114,.T.);
#123=FACE_BOUND('',#115,.T.);
#124=FACE_BOUND('',#116,.T.);
#125=FACE_BOUND('',#117,.T.);
#126=FACE_BOUND('',#118,.T.);
#127=PLANE('',#153);
#128=PLANE('',#154);
#129=PLANE('',#155);
#130=PLANE('',#158);
#131=PLANE('',#161);
#132=ADVANCED_FACE('',(#119),#127,.T.);
#133=ADVANCED_FACE('',(#120),#128,.T.);
#134=ADVANCED_FACE('',(#121),#129,.F.);
#135=ADVANCED_FACE('',(#122),#130,.T.);
#136=ADVANCED_FACE('',(#123),#131,.T.);
#137=ADVANCED_FACE('',(#124),#12,.T.);
#138=ADVANCED_FACE('',(#125),#13,.T.);
#139=ADVANCED_FACE('',(#126),#14,.T.);
#140=CLOSED_SHELL('',(#132,#133,#134,#135,#136,#137,#138,#139));
#141=STYLED_ITEM('',(#142),#149);
#142=PRESENTATION_STYLE_ASSIGNMENT((#143));
#143=SURFACE_STYLE_USAGE(.BOTH.,#144);
#144=SURFACE_SIDE_STYLE('',(#145));
#145=SURFACE_STYLE_FILL_AREA(#146);
#146=FILL_AREA_STYLE('',(#147));
#147=FILL_AREA_STYLE_COLOUR('',#148);
#148=COLOUR_RGB('',0.615686274509804,0.811764705882353,0.929411764705882);
#149=MANIFOLD_SOLID_BREP('Part 1',#140);
#150=SHAPE_DEFINITION_REPRESENTATION(#254,#151);
#151=SHAPE_REPRESENTATION('Part 1',(#152),#249);
#152=AXIS2_PLACEMENT_3D('',#209,#167,#168);
#153=AXIS2_PLACEMENT_3D('',#210,#169,#170);
#154=AXIS2_PLACEMENT_3D('',#223,#177,#178);
#155=AXIS2_PLACEMENT_3D('',#236,#185,#186);
#156=AXIS2_PLACEMENT_3D('',#237,#187,#188);
#157=AXIS2_PLACEMENT_3D('',#238,#189,#190);
#158=AXIS2_PLACEMENT_3D('',#239,#191,#192);
#159=AXIS2_PLACEMENT_3D('',#240,#193,#194);
#160=AXIS2_PLACEMENT_3D('',#241,#195,#196);
#161=AXIS2_PLACEMENT_3D('',#242,#197,#198);
#162=AXIS2_PLACEMENT_3D('',#243,#199,#200);
#163=AXIS2_PLACEMENT_3D('',#244,#201,#202);
#164=AXIS2_PLACEMENT_3D('',#245,#203,#204);
#165=AXIS2_PLACEMENT_3D('',#246,#205,#206);
#166=AXIS2_PLACEMENT_3D('',#247,#207,#208);
#167=DIRECTION('',(0.,0.,1.));
#168=DIRECTION('',(1.,0.,0.));
#169=DIRECTION('',(1.,0.,-5.88041856263324E-17));
#170=DIRECTION('',(-5.88041856263324E-17,0.,-1.));
#171=DIRECTION('',(5.88041856263324E-17,0.,1.));
#172=DIRECTION('',(0.,-1.,0.));
#173=DIRECTION('',(5.88041856263324E-17,0.,1.));
#174=DIRECTION('',(0.,1.,0.));
#175=DIRECTION('',(5.88041856263324E-17,0.,1.));
#176=DIRECTION('',(0.,-1.,0.));
#177=DIRECTION('',(-1.,0.,-5.88041856263324E-17));
#178=DIRECTION('',(-5.88041856263324E-17,0.,1.));
#179=DIRECTION('',(5.88041856263324E-17,0.,-1.));
#180=DIRECTION('',(0.,-1.,0.));
#181=DIRECTION('',(5.88041856263324E-17,0.,-1.));
#182=DIRECTION('',(0.,-1.,0.));
#183=DIRECTION('',(5.88041856263324E-17,0.,-1.));
#184=DIRECTION('',(0.,1.,0.));
#185=DIRECTION('',(0.,-1.,0.));
#186=DIRECTION('',(1.,0.,0.));
#187=DIRECTION('',(0.,-1.,0.));
#188=DIRECTION('',(0.,0.,-1.));
#189=DIRECTION('',(0.,-1.,0.));
#190=DIRECTION('',(0.,0.,-1.));
#191=DIRECTION('',(0.,-1.,0.));
#192=DIRECTION('',(1.,0.,0.));
#193=DIRECTION('',(0.,-1.,0.));
#194=DIRECTION('',(0.,0.,-1.));
#195=DIRECTION('',(0.,-1.,0.));
#196=DIRECTION('',(0.,0.,-1.));
#197=DIRECTION('',(0.,-1.,0.));
#198=DIRECTION('',(1.,0.,0.));
#199=DIRECTION('',(0.,-1.,0.));
#200=DIRECTION('',(0.,0.,-1.));
#201=DIRECTION('',(0.,-1.,0.));
#202=DIRECTION('',(0.,0.,-1.));
#203=DIRECTION('',(0.,1.,0.));
#204=DIRECTION('',(0.,0.,1.));
#205=DIRECTION('',(0.,-1.,0.));
#206=DIRECTION('',(0.,0.,-1.));
#207=DIRECTION('',(0.,-1.,0.));
#208=DIRECTION('',(0.,0.,-1.));
#209=CARTESIAN_POINT('',(0.,0.,0.));
#210=CARTESIAN_POINT('',(0.00225,0.01,0.0036875));
#211=CARTESIAN_POINT('',(0.00225,0.,0.0036875));
#212=CARTESIAN_POINT('',(0.00225,0.,0.00225));
#213=CARTESIAN_POINT('',(0.00225,0.,0.005125));
#214=CARTESIAN_POINT('',(0.00225,0.005,0.00225));
#215=CARTESIAN_POINT('',(0.00225,0.005,0.00225));
#216=CARTESIAN_POINT('',(0.00225,0.005,-0.0036875));
#217=CARTESIAN_POINT('',(0.00225,0.005,-0.005125));
#218=CARTESIAN_POINT('',(0.00225,0.01,-0.005125));
#219=CARTESIAN_POINT('',(0.00225,0.01,-0.005125));
#220=CARTESIAN_POINT('',(0.00225,0.01,0.0036875));
#221=CARTESIAN_POINT('',(0.00225,0.01,0.005125));
#222=CARTESIAN_POINT('',(0.00225,0.01,0.005125));
#223=CARTESIAN_POINT('',(-0.00225,0.01,0.0036875));
#224=CARTESIAN_POINT('',(-0.00225,0.005,-0.0036875));
#225=CARTESIAN_POINT('',(-0.00225,0.005,0.00225));
#226=CARTESIAN_POINT('',(-0.00225,0.005,-0.005125));
#227=CARTESIAN_POINT('',(-0.00225,0.,0.00225));
#228=CARTESIAN_POINT('',(-0.00225,0.,0.00225));
#229=CARTESIAN_POINT('',(-0.00225,0.,0.0036875));
#230=CARTESIAN_POINT('',(-0.00225,0.,0.005125));
#231=CARTESIAN_POINT('',(-0.00225,0.01,0.005125));
#232=CARTESIAN_POINT('',(-0.00225,0.01,0.005125));
#233=CARTESIAN_POINT('',(-0.00225,0.01,0.0036875));
#234=CARTESIAN_POINT('',(-0.00225,0.01,-0.005125));
#235=CARTESIAN_POINT('',(-0.00225,0.005,-0.005125));
#236=CARTESIAN_POINT('',(0.,0.01,0.));
#237=CARTESIAN_POINT('',(3.49149852156349E-19,0.01,-0.005125));
#238=CARTESIAN_POINT('',(-1.81925449281466E-18,0.01,0.005125));
#239=CARTESIAN_POINT('',(0.,0.,0.));
#240=CARTESIAN_POINT('',(7.82830721150551E-19,0.,0.00225));
#241=CARTESIAN_POINT('',(-1.81925449281466E-18,0.,0.005125));
#242=CARTESIAN_POINT('',(0.,0.005,0.));
#243=CARTESIAN_POINT('',(3.49149852156349E-19,0.005,-0.005125));
#244=CARTESIAN_POINT('',(-1.65019245913896E-18,0.005,0.00225));
#245=CARTESIAN_POINT('',(7.82830721150551E-19,0.01,0.00225));
#246=CARTESIAN_POINT('',(3.49149852156349E-19,0.01,-0.005125));
#247=CARTESIAN_POINT('',(-1.81925449281466E-18,0.01,0.005125));
#248=MECHANICAL_DESIGN_GEOMETRIC_PRESENTATION_REPRESENTATION('',(#141),
#249);
#249=(
GEOMETRIC_REPRESENTATION_CONTEXT(3)
GLOBAL_UNCERTAINTY_ASSIGNED_CONTEXT((#250))
GLOBAL_UNIT_ASSIGNED_CONTEXT((#253,#252,#251))
REPRESENTATION_CONTEXT('Part 1','TOP_LEVEL_ASSEMBLY_PART')
);
#250=UNCERTAINTY_MEASURE_WITH_UNIT(LENGTH_MEASURE(1.E-8),#253,
'DISTANCE_ACCURACY_VALUE','Maximum Tolerance applied to model');
#251=(
NAMED_UNIT(*)
SI_UNIT($,.STERADIAN.)
SOLID_ANGLE_UNIT()
);
#252=(
NAMED_UNIT(*)
PLANE_ANGLE_UNIT()
SI_UNIT($,.RADIAN.)
);
#253=(
LENGTH_UNIT()
NAMED_UNIT(*)
SI_UNIT($,.METRE.)
);
#254=PRODUCT_DEFINITION_SHAPE('','',#255);
#255=PRODUCT_DEFINITION('','',#257,#256);
#256=PRODUCT_DEFINITION_CONTEXT('',#263,'design');
#257=PRODUCT_DEFINITION_FORMATION_WITH_SPECIFIED_SOURCE('','',#259,
 .NOT_KNOWN.);
#258=PRODUCT_RELATED_PRODUCT_CATEGORY('','',(#259));
#259=PRODUCT('Part 1','Part 1','Part 1',(#261));
#260=PRODUCT_CATEGORY('','');
#261=PRODUCT_CONTEXT('',#263,'mechanical');
#262=APPLICATION_PROTOCOL_DEFINITION('international standard',
'ap242_managed_model_based_3d_engineering',2020,#263);
#263=APPLICATION_CONTEXT('managed model based 3d engineering');
ENDSEC;
END-ISO-10303-21;
